<?xml version="1.0" encoding="UTF-8" standalone="no"?>
<!-- Created with Inkscape (http://www.inkscape.org/) -->

<svg
   width="170mm"
   height="170mm"
   viewBox="0 0 170 170"
   version="1.1"
   id="svg1"
   inkscape:export-filename="default_effect.png"
   inkscape:export-xdpi="104.58823"
   inkscape:export-ydpi="104.58823"
   inkscape:version="1.4 (1:1.4+202410161351+e7c3feb100)"
   sodipodi:docname="default_effect.svg"
   xmlns:inkscape="http://www.inkscape.org/namespaces/inkscape"
   xmlns:sodipodi="http://sodipodi.sourceforge.net/DTD/sodipodi-0.dtd"
   xmlns="http://www.w3.org/2000/svg"
   xmlns:svg="http://www.w3.org/2000/svg">
  <sodipodi:namedview
     id="namedview1"
     pagecolor="#505050"
     bordercolor="#eeeeee"
     borderopacity="1"
     inkscape:showpageshadow="0"
     inkscape:pageopacity="0"
     inkscape:pagecheckerboard="0"
     inkscape:deskcolor="#505050"
     inkscape:document-units="mm"
     inkscape:export-bgcolor="#b04f1bff"
     inkscape:zoom="0.63802285"
     inkscape:cx="278.98687"
     inkscape:cy="389.48448"
     inkscape:window-width="1600"
     inkscape:window-height="765"
     inkscape:window-x="0"
     inkscape:window-y="32"
     inkscape:window-maximized="1"
     inkscape:current-layer="svg1" />
  <defs
     id="defs1" />
  <g
     inkscape:label="Layer 1"
     inkscape:groupmode="layer"
     id="layer1"
     transform="translate(-61.932265,-15.420113)"
     style="display:inline" />
  <path
     id="path57"
     style="stroke-width:6.03787;stroke-linecap:round;fill:#000000"
     d="M 84.99998 9.8061198 C 69.55167 9.8061198 57.02856 24.693875 57.02856 43.059387 C 57.02856 61.424899 75.253778 84.99998 84.99998 84.99998 C 93.931802 84.728522 112.9714 61.4249 112.9714 43.059387 C 112.9714 24.693874 100.44829 9.8061181 84.99998 9.8061198 z M 84.99998 84.99998 C 76.068157 85.271438 57.02856 108.57506 57.02856 126.94057 C 57.02856 145.30608 69.551671 160.19385 84.99998 160.19384 C 100.44829 160.19384 112.9714 145.30608 112.9714 126.94057 C 112.9714 108.57506 94.746179 84.99998 84.99998 84.99998 z "
     inkscape:label="hg-back" />
  <path
     id="path61"
     style="stroke-width:6.03787;stroke-linecap:round;fill:#c8ab37"
     d="M 84.99998 9.8061198 C 69.55167 9.8061198 57.02856 24.693875 57.02856 43.059387 C 57.02856 46.891549 57.830247 50.95014 59.174683 54.974422 C 72.747375 56.200217 83.610967 68.93313 84.872856 84.990678 C 84.91444 84.991522 84.958698 84.99998 84.99998 84.99998 C 85.040946 84.998735 85.085715 84.988755 85.127104 84.986544 C 86.38752 68.969038 97.202177 56.260479 110.72864 54.983207 C 112.12955 50.963101 112.9714 46.903316 112.9714 43.059387 C 112.9714 24.693874 100.44829 9.8061181 84.99998 9.8061198 z "
     inkscape:label="hg-top" />
  <rect
     style="fill:#000000;fill-opacity:1;stroke:none;stroke-width:8.11097;stroke-linecap:round;stroke-dasharray:none;stroke-opacity:1"
     id="rect58"
     width="78.473801"
     height="26.717171"
     x="45.7631"
     y="9.8059177"
     ry="10.999269" />
  <rect
     style="fill:#000000;fill-opacity:1;stroke:none;stroke-width:8.11097;stroke-linecap:round;stroke-dasharray:none;stroke-opacity:1"
     id="rect59"
     width="78.473801"
     height="26.717171"
     x="45.7631"
     y="138.36061"
     ry="10.999269" />
  <path
     id="path59"
     style="fill:#c83737;stroke-width:6.03787;stroke-linecap:round"
     d="M 84.99998 84.99998 C 84.959507 85.00121 84.915291 85.011242 84.874406 85.013416 C 84.954273 86.03724 84.99998 87.072615 84.99998 88.121236 C 84.99998 87.071216 85.045476 86.034436 85.125553 85.009281 C 85.084477 85.008458 85.040761 84.99998 84.99998 84.99998 z M 84.99998 88.121236 C 84.99998 106.40353 66.136076 129.57044 57.154134 130.04788 C 58.47287 146.95552 70.43358 160.19385 84.99998 160.19384 C 99.565202 160.19384 111.52548 146.95769 112.84583 130.05201 C 103.07021 129.85605 84.99998 106.4099 84.99998 88.121236 z "
     inkscape:label="hg-bottom" />
  <path
     id="path62"
     style="display:inline;fill:#22002b;stroke-width:6.03787;stroke-linecap:round"
     d="m 93.788035,36.721604 c -0.141863,0.158296 -0.27929,0.323752 -0.418759,0.48599 0.139349,-0.16233 0.276981,-0.327637 0.418759,-0.48599 z m -1.039585,1.226673 c -0.165784,0.204943 -0.328181,0.414476 -0.490373,0.62485 0.161987,-0.210508 0.324779,-0.419785 0.490373,-0.62485 z m -0.974176,1.267964 c -0.182054,0.247546 -0.362408,0.496787 -0.539707,0.750913 0.177032,-0.25429 0.357918,-0.503203 0.539707,-0.750913 z m -0.883556,1.257002 c -0.20765,0.307903 -0.414481,0.616061 -0.615346,0.93252 0.200524,-0.316574 0.408057,-0.624482 0.615346,-0.93252 z m -0.626308,0.95006 c -0.82284,1.297787 -1.58645,2.665888 -2.294394,4.08416 0.707846,-1.418076 1.472741,-2.785571 2.294394,-4.08416 z m -2.294394,4.08416 C 80.821992,59.827584 79.563417,79.32853 84.91667,84.903514 95.378781,72.656822 96.700591,55.971574 87.970016,45.507463 Z m 40.442574,34.282539 c -1.27185,0.78122 -2.60767,1.507831 -3.99353,2.177463 1.38616,-0.669777 2.7223,-1.395077 3.99353,-2.177463 z m -3.99463,2.177826 c -10.46782,-8.661484 -27.10125,-7.322296 -39.318586,3.112543 5.284096,4.74808 24.921396,3.843557 39.318586,-3.112543 z M 85.0822,85.095352 c -0.781519,0.668269 -1.546802,1.369214 -2.289278,2.111691 -12.932038,12.932037 -16.733388,42.288547 -9.959545,49.339527 0.781346,-0.66821 1.546555,-1.36898 2.288911,-2.11133 C 88.054324,121.5032 91.856038,92.146321 85.0822,85.095352 Z m -2.289278,2.111691 c 0.741487,-0.741487 1.441286,-1.50593 2.108766,-2.286355 -6.688792,-6.013595 -36.40943,-2.970543 -49.336961,9.956988 -0.741366,0.741366 -1.441027,1.505699 -2.108406,2.285994 6.688793,6.01359 36.409067,2.97091 49.336601,-9.956627 z m -9.963201,49.342447 c -0.358857,0.30681 -0.722663,0.60344 -1.088916,0.89452 0.366387,-0.29116 0.729932,-0.58762 1.088916,-0.89452 z M 32.433185,98.411167 c -0.283041,0.35979 -0.556097,0.723724 -0.823997,1.090014 0.267866,-0.366211 0.540999,-0.730294 0.823997,-1.090014 z m -0.961025,1.276006 c -0.252826,0.350037 -0.49689,0.703537 -0.735929,1.058947 0.239038,-0.35535 0.483106,-0.70896 0.735929,-1.058947 z m -0.902923,1.306337 c -0.228481,0.34547 -0.448814,0.69357 -0.664312,1.0436 0.215533,-0.35002 0.435799,-0.69813 0.664312,-1.0436 z m -0.834588,1.32131 c -0.207656,0.34387 -0.408137,0.68964 -0.603291,1.03739 0.195127,-0.3476 0.395687,-0.69367 0.603291,-1.03739 z m -0.776127,1.34762 c -0.189108,0.34459 -0.37197,0.69059 -0.548841,1.03849 0.176873,-0.34779 0.359745,-0.69401 0.548841,-1.03849 z m -0.706698,1.35274 c -0.172707,0.34786 -0.339745,0.69693 -0.500245,1.04763 0.160546,-0.35065 0.327503,-0.69982 0.500245,-1.04763 z m -0.647136,1.3743 c -0.155687,0.3492 -0.30659,0.69938 -0.45018,1.05091 0.143643,-0.35149 0.29445,-0.70175 0.45018,-1.05091 z m -0.584649,1.38854 c -0.138965,0.35029 -0.274253,0.70098 -0.401224,1.05311 0.127017,-0.35207 0.262216,-0.70288 0.401224,-1.05311 z m -0.517786,1.38965 c -0.124214,0.3557 -0.2454,0.71133 -0.357371,1.06846 0.111997,-0.35697 0.233145,-0.71291 0.357371,-1.06846 z m -0.451278,1.38234 c -0.111191,0.36674 -0.219647,0.73359 -0.317907,1.10134 0.09834,-0.36776 0.206637,-0.73459 0.317907,-1.10134 z m -0.380758,1.35274 c -0.101133,0.3904 -0.198845,0.78085 -0.285378,1.17186 0.08658,-0.39085 0.184202,-0.78161 0.285378,-1.17186 z m 25.688885,33.45087 c -0.346652,0.0149 -0.691967,0.0175 -1.037028,0.0205 0.345174,-0.003 0.690242,-0.006 1.037028,-0.0205 z M 24.620038,120.06011 c 0.0013,0.29869 0.01281,0.59552 0.02302,0.89269 -0.01015,-0.29726 -0.02183,-0.59391 -0.02302,-0.89269 z m 0.04056,1.41376 c 0.01413,0.27089 0.03646,0.54003 0.0581,0.80937 -0.02159,-0.2693 -0.04402,-0.53851 -0.0581,-0.80937 z m 0.107431,1.39658 c 0.02628,0.25984 0.05982,0.51765 0.09318,0.77577 -0.03329,-0.25804 -0.06696,-0.51601 -0.09318,-0.77577 z m 0.175031,1.38088 c 0.0376,0.24811 0.08109,0.49442 0.125332,0.74068 -0.04417,-0.24618 -0.08779,-0.49265 -0.125332,-0.74068 z m 0.241532,1.36041 c 0.04886,0.23986 0.102965,0.47799 0.158222,0.71584 -0.05522,-0.23785 -0.109405,-0.47597 -0.158222,-0.71584 z m 0.311696,1.34726 c 0.05875,0.22745 0.120908,0.45357 0.185624,0.67893 -0.06468,-0.22536 -0.126916,-0.45148 -0.185624,-0.67893 z m 0.378925,1.32168 c 0.06968,0.2209 0.142246,0.44056 0.217779,0.6592 -0.07549,-0.21858 -0.148148,-0.43836 -0.217779,-0.6592 z m 0.446162,1.29098 c 0.08005,0.21313 0.161647,0.42543 0.24738,0.63618 -0.08574,-0.21075 -0.167369,-0.423 -0.24738,-0.63618 z m 0.521072,1.27747 c 0.08821,0.2005 0.176527,0.40082 0.270039,0.5989 -0.09347,-0.19798 -0.181899,-0.39847 -0.270039,-0.5989 z m 0.581726,1.2285 c 0.100617,0.1982 0.200845,0.39646 0.306941,0.59196 -0.106084,-0.19546 -0.20635,-0.39379 -0.306941,-0.59196 z m 0.655907,1.20475 c 0.109203,0.18783 0.216283,0.37653 0.330699,0.56163 -0.114383,-0.1851 -0.221544,-0.37379 -0.330699,-0.56163 z m 0.738856,1.18976 c 0.113193,0.1709 0.223126,0.34362 0.340928,0.51194 -0.11779,-0.16828 -0.227776,-0.34106 -0.340928,-0.51194 z m 5.55785,5.89622 c -0.156035,-0.11715 -0.314544,-0.22983 -0.468099,-0.35115 0.15353,0.12129 0.312087,0.23403 0.468099,0.35115 z m -4.742626,-4.74189 c 0.116367,0.15483 0.228126,0.31241 0.348574,0.46482 -0.120432,-0.15239 -0.232296,-0.30994 -0.348574,-0.46482 z m 0.909865,1.13788 c 0.109852,0.12894 0.21443,0.2611 0.327399,0.38806 -0.112885,-0.12702 -0.21756,-0.25913 -0.327399,-0.38806 z"
     inkscape:transform-center-y="6.0478775"
     inkscape:transform-center-x="8.483666" />
  <path
     id="path65"
     style="display:inline;fill:#441650;stroke-width:6.03787;stroke-linecap:round"
     d="m 36.721599,76.211929 c 0.158296,0.141863 0.323752,0.27929 0.48599,0.418759 -0.16233,-0.139349 -0.327637,-0.276981 -0.48599,-0.418759 z m 1.226673,1.039585 c 0.204943,0.165784 0.414476,0.328181 0.62485,0.490373 -0.210508,-0.161987 -0.419785,-0.324779 -0.62485,-0.490373 z m 1.267964,0.974176 c 0.247546,0.182054 0.496787,0.362408 0.750913,0.539707 -0.25429,-0.177032 -0.503203,-0.357918 -0.750913,-0.539707 z m 1.257002,0.883556 c 0.307903,0.20765 0.616061,0.414481 0.93252,0.615346 -0.316574,-0.200524 -0.624482,-0.408057 -0.93252,-0.615346 z m 0.95006,0.626308 c 1.297787,0.82284 2.665888,1.58645 4.08416,2.294394 -1.418076,-0.707846 -2.785571,-1.472741 -4.08416,-2.294394 z m 4.08416,2.294394 c 14.320121,7.148024 33.821067,8.406599 39.396051,3.053346 C 72.656817,74.621183 55.971569,73.299373 45.507458,82.029948 Z M 79.789997,41.587374 c 0.78122,1.27185 1.507831,2.60767 2.177463,3.99353 -0.669777,-1.38616 -1.395077,-2.7223 -2.177463,-3.99353 z m 2.177826,3.99463 c -8.661484,10.46782 -7.322296,27.10125 3.112543,39.318586 4.74808,-5.284096 3.843557,-24.921396 -3.112543,-39.318586 z m 3.127524,39.33576 c 0.668269,0.781519 1.369214,1.546802 2.111691,2.289278 12.932042,12.932038 42.288552,16.733388 49.339532,9.959545 -0.66821,-0.781346 -1.36898,-1.546555 -2.11133,-2.288911 C 121.5032,81.94564 92.146316,78.143926 85.095347,84.917764 Z m 2.111691,2.289278 c -0.741487,-0.741487 -1.50593,-1.441286 -2.286355,-2.108766 -6.013595,6.688792 -2.970543,36.409434 9.956988,49.336964 0.741366,0.74136 1.505699,1.44102 2.285994,2.1084 6.013595,-6.68879 2.970915,-36.40906 -9.956627,-49.336598 z m 49.342452,9.963201 c 0.30681,0.358857 0.60344,0.722663 0.89452,1.088916 -0.29116,-0.366387 -0.58762,-0.729932 -0.89452,-1.088916 z M 98.411162,137.56678 c 0.35979,0.28304 0.723724,0.5561 1.090014,0.824 -0.366211,-0.26787 -0.730294,-0.541 -1.090014,-0.824 z m 1.276006,0.96102 c 0.350042,0.25283 0.703542,0.49689 1.058952,0.73593 -0.35535,-0.23903 -0.70896,-0.4831 -1.058952,-0.73593 z m 1.306342,0.90293 c 0.34547,0.22848 0.69357,0.44881 1.0436,0.66431 -0.35002,-0.21553 -0.69813,-0.4358 -1.0436,-0.66431 z m 1.32131,0.83459 c 0.34387,0.20765 0.68964,0.40813 1.03739,0.60329 -0.3476,-0.19513 -0.69367,-0.39569 -1.03739,-0.60329 z m 1.34762,0.77612 c 0.34459,0.18911 0.69059,0.37197 1.03849,0.54884 -0.34779,-0.17687 -0.69401,-0.35974 -1.03849,-0.54884 z m 1.35274,0.7067 c 0.34786,0.17271 0.69693,0.33975 1.04763,0.50025 -0.35065,-0.16055 -0.69982,-0.32751 -1.04763,-0.50025 z m 1.3743,0.64714 c 0.3492,0.15568 0.69938,0.30659 1.05091,0.45018 -0.35149,-0.14365 -0.70175,-0.29445 -1.05091,-0.45018 z m 1.38854,0.58465 c 0.35029,0.13896 0.70098,0.27425 1.05311,0.40122 -0.35207,-0.12702 -0.70288,-0.26222 -1.05311,-0.40122 z m 1.38965,0.51778 c 0.3557,0.12422 0.71133,0.2454 1.06846,0.35737 -0.35697,-0.11199 -0.71291,-0.23314 -1.06846,-0.35737 z m 1.38234,0.45128 c 0.36674,0.11119 0.73359,0.21965 1.10134,0.31791 -0.36776,-0.0983 -0.73459,-0.20664 -1.10134,-0.31791 z m 1.35274,0.38076 c 0.3904,0.10113 0.78085,0.19884 1.17186,0.28538 -0.39085,-0.0866 -0.78161,-0.18421 -1.17186,-0.28538 z m 33.45087,-25.68889 c 0.0149,0.34665 0.0175,0.69197 0.0205,1.03703 -0.003,-0.34517 -0.006,-0.69024 -0.0205,-1.03703 z m -25.29351,26.73907 c 0.29869,-0.001 0.59552,-0.0128 0.89269,-0.023 -0.29726,0.0102 -0.59391,0.0218 -0.89269,0.023 z m 1.41376,-0.0406 c 0.27089,-0.0141 0.54003,-0.0365 0.80937,-0.0581 -0.2693,0.0216 -0.53851,0.044 -0.80937,0.0581 z m 1.39658,-0.10743 c 0.25984,-0.0263 0.51765,-0.0598 0.77577,-0.0932 -0.25804,0.0333 -0.51601,0.067 -0.77577,0.0932 z m 1.38088,-0.17504 c 0.24811,-0.0376 0.49442,-0.0811 0.74068,-0.12533 -0.24618,0.0442 -0.49265,0.0878 -0.74068,0.12533 z m 1.36041,-0.24153 c 0.23986,-0.0489 0.47799,-0.10296 0.71584,-0.15822 -0.23785,0.0552 -0.47597,0.10941 -0.71584,0.15822 z m 1.34726,-0.31169 c 0.22745,-0.0588 0.45357,-0.12091 0.67893,-0.18563 -0.22536,0.0647 -0.45148,0.12692 -0.67893,0.18563 z m 1.32168,-0.37893 c 0.2209,-0.0697 0.44056,-0.14224 0.6592,-0.21778 -0.21858,0.0755 -0.43836,0.14815 -0.6592,0.21778 z m 1.29098,-0.44616 c 0.21313,-0.08 0.42543,-0.16165 0.63618,-0.24738 -0.21075,0.0857 -0.423,0.16737 -0.63618,0.24738 z m 1.27747,-0.52107 c 0.2005,-0.0882 0.40082,-0.17653 0.5989,-0.27004 -0.19798,0.0935 -0.39847,0.1819 -0.5989,0.27004 z m 1.2285,-0.58173 c 0.1982,-0.10062 0.39646,-0.20084 0.59196,-0.30694 -0.19546,0.10608 -0.39379,0.20635 -0.59196,0.30694 z m 1.20475,-0.65591 c 0.18783,-0.1092 0.37653,-0.21628 0.56163,-0.33069 -0.1851,0.11438 -0.37379,0.22154 -0.56163,0.33069 z m 1.18976,-0.73885 c 0.1709,-0.11319 0.34362,-0.22313 0.51194,-0.34093 -0.16828,0.11779 -0.34106,0.22778 -0.51194,0.34093 z m 5.89622,-5.55785 c -0.11715,0.15603 -0.22983,0.31454 -0.35115,0.4681 0.12129,-0.15353 0.23403,-0.31209 0.35115,-0.4681 z m -4.74189,4.74262 c 0.15483,-0.11636 0.31241,-0.22812 0.46482,-0.34857 -0.15239,0.12043 -0.30994,0.2323 -0.46482,0.34857 z m 1.13788,-0.90986 c 0.12894,-0.10985 0.2611,-0.21443 0.38806,-0.3274 -0.12702,0.11289 -0.25913,0.21756 -0.38806,0.3274 z"
     inkscape:transform-center-y="8.4836675"
     inkscape:transform-center-x="-6.0478795"
     inkscape:label="petal1" />
</svg>
